Coordinates
version=1
nRows=26
nColumns=24
inDegrees=yes

Units are S.I. units (second, meters, Newtons, ...)
Angles are in degrees.

endheader
time	pelvis_tilt	pelvis_list	pelvis_rotation	pelvis_tx	pelvis_ty	pelvis_tz	hip_flexion_r	hip_adduction_r	hip_rotation_r	knee_angle_r	ankle_angle_r	subtalar_angle_r	mtp_angle_r	hip_flexion_l	hip_adduction_l	hip_rotation_l	knee_angle_l	ankle_angle_l	subtalar_angle_l	mtp_angle_l	lumbar_extension	lumbar_bending	lumbar_rotation
      1.41633333	      1.85217092	      5.93704998	     -4.39458613	      0.48557046	      1.01739637	      0.35019011	     19.08906508	     -4.47815322	      4.20960185	    -25.03557597	      9.12048369	    -10.76443405	     -1.02386694	    -13.38566511	     12.96422585	      3.64892487	     -1.47611591	      2.69037708	    -14.96760060	     -3.67521112	    -13.97173052	      0.59278890	     -6.80006715
      1.42050000	      1.65041984	      5.98281751	     -4.39321315	      0.49056641	      1.01685694	      0.35022183	     19.26949570	     -4.45427468	      4.09349238	    -23.40300912	      8.89042185	    -10.31594892	     -1.01219885	    -13.53794091	     12.99847270	      3.55866824	     -1.32756230	      2.55999086	    -14.82043701	     -3.63620874	    -13.75955400	      0.56892523	     -6.78625359
      1.42466667	      1.51018247	      5.98713153	     -4.39500906	      0.49557449	      1.01638724	      0.35028160	     19.33856986	     -4.38308215	      3.99057281	    -21.71413781	      8.60566669	     -9.96875483	     -0.95976869	    -13.73966464	     12.99104383	      3.42264288	     -1.22278872	      2.52424570	    -14.57377712	     -3.50397580	    -13.64453132	      0.61506534	     -6.83046164
      1.42883333	      1.32061783	      6.04750425	     -4.39532192	      0.50061551	      1.01579377	      0.35030834	     19.49190383	     -4.37446527	      3.82918932	    -20.11076837	      8.33233540	     -9.49136462	     -0.93514676	    -13.88905355	     13.04386828	      3.34047969	     -1.10841403	      2.40359232	    -14.42898243	     -3.45312784	    -13.43740714	      0.57733472	     -6.81919477
      1.43300000	      1.17520348	      6.06908656	     -4.38347797	      0.50567579	      1.01524590	      0.35034497	     19.55783703	     -4.32438368	      3.67145987	    -18.47805436	      8.06240683	     -9.07334452	     -0.84913117	    -14.06228098	     13.05330280	      3.23727893	     -1.05896560	      2.38067392	    -14.20820879	     -3.30007968	    -13.31024776	      0.60704818	     -6.87034452
      1.43716667	      1.01475034	      6.13188590	     -4.38337787	      0.51076449	      1.01463283	      0.35036667	     19.66917074	     -4.31626189	      3.47423892	    -16.93362232	      7.77845039	     -8.56159634	     -0.81031665	    -14.22458182	     13.11219490	      3.16755565	     -0.98749327	      2.27076482	    -14.07613301	     -3.23774622	    -13.13507109	      0.56559829	     -6.85957377
      1.44133333	      0.87219446	      6.18648047	     -4.37809449	      0.51586884	      1.01400922	      0.35039736	     19.74887999	     -4.29643354	      3.27610567	    -15.41521808	      7.53188249	     -8.04777734	     -0.76829086	    -14.39033671	     13.16184077	      3.11326053	     -0.95651173	      2.19637875	    -13.95042510	     -3.17504354	    -12.98817267	      0.54360984	     -6.86049153
      1.44550000	      0.80884879	      6.22207836	     -4.37440097	      0.52100468	      1.01347764	      0.35043659	     19.73039577	     -4.26172888	      3.05296827	    -13.92968410	      7.29320287	     -7.53063295	     -0.35298374	    -14.60726025	     13.19140767	      2.91391291	     -0.99718270	      2.18574386	    -13.57611622	     -2.59434400	    -12.96202587	      0.55083073	     -6.99940364
      1.44966667	      0.64818865	      6.27421291	     -4.35329049	      0.52618792	      1.01278642	      0.35044813	     19.82457642	     -4.23312986	      2.83474965	    -12.52367465	      7.08919089	     -7.00640433	     -0.30380356	    -14.74307012	     13.23641835	      2.94333988	     -1.00484861	      2.14840410	    -13.54158202	     -2.52776912	    -12.77622811	      0.53132459	     -6.94171182
      1.45383333	      0.59586189	      6.32400678	     -4.34121294	      0.53137796	      1.01219792	      0.35045100	     19.81616445	     -4.21372958	      2.56900415	    -11.20853209	      6.98449733	     -6.34972374	     -0.08951163	    -14.98535262	     13.28593924	      2.93509004	     -1.02994459	      2.10959710	    -13.42047942	     -2.24787423	    -12.74895767	      0.51465990	     -6.99948155
      1.45800000	      0.46957229	      6.37326035	     -4.31365441	      0.53660668	      1.01152113	      0.35045579	     19.87547830	     -4.17963899	      2.34497606	     -9.93815986	      6.82084631	     -5.85525993	     -0.02333168	    -15.11581406	     13.32847700	      2.91189697	     -1.12710785	      2.04559214	    -13.36215138	     -2.16069864	    -12.60499149	      0.49964945	     -6.97388366
      1.46216667	      0.35212823	      6.42356392	     -4.29746931	      0.54183611	      1.01082508	      0.35047256	     19.93388570	     -4.13964784	      2.16494184	     -8.75000239	      6.69156223	     -5.32074990	      0.03382775	    -15.25134841	     13.37467596	      2.92035837	     -1.23160581	      2.00064409	    -13.27919338	     -2.08481080	    -12.49785782	      0.49106943	     -6.96957705
      1.46633333	      0.35808139	      6.44654247	     -4.25999950	      0.54711376	      1.01029455	      0.35043176	     19.86367274	     -4.09743292	      1.87496895	     -7.66889906	      6.74042482	     -4.64020594	      0.21470422	    -15.50335438	     13.39427027	      2.89552443	     -1.38609815	      2.01774105	    -13.11108882	     -1.83691598	    -12.53223040	      0.52854839	     -7.04826683
      1.47050000	      0.23373184	      6.49258077	     -4.24617745	      0.55239930	      1.00956811	      0.35047060	     19.93604117	     -4.04268369	      1.75635146	     -6.64514705	      6.64444494	     -4.18318931	      0.26984350	    -15.60471294	     13.43630370	      2.90271608	     -1.54936181	      1.98185100	    -13.06355239	     -1.75807642	    -12.39875003	      0.50673497	     -7.02852656
      1.47466667	      0.22471386	      6.52684920	     -4.21330199	      0.55772417	      1.00899011	      0.35042725	     19.91333293	     -4.00580494	      1.49250855	     -5.78055270	      6.78051807	     -3.47167952	      0.54819731	    -15.80650258	     13.46791856	      2.86422153	     -1.77526752	      2.03977795	    -12.86789998	     -1.33841975	    -12.38855482	      0.52071238	     -7.11797047
      1.47883333	      0.11059574	      6.54596826	     -4.17953066	      0.56305839	      1.00829164	      0.35044106	     19.96853588	     -3.92792439	      1.41933937	     -4.91616847	      6.71916115	     -3.10760506	      0.60388655	    -15.88455070	     13.47853938	      2.89261692	     -2.02130687	      2.00929719	    -12.85211785	     -1.25019737	    -12.27760320	      0.54074712	     -7.08177851
      1.48300000	      0.10548553	      6.55751913	     -4.13705026	      0.56842412	      1.00773113	      0.35039635	     19.94197784	     -3.86763850	      1.22568734	     -4.22389479	      6.88998141	     -2.48120722	      0.89131267	    -16.05915905	     13.48308039	      2.86165403	     -2.31926382	      2.08054470	    -12.65099563	     -0.76422550	    -12.28402237	      0.57655683	     -7.15895217
      1.48716667	      0.01625138	      6.55629161	     -4.10250254	      0.57380949	      1.00708047	      0.35039697	     19.96953602	     -3.77413292	      1.22637769	     -3.53130721	      6.85303567	     -2.19748072	      0.93944471	    -16.13293711	     13.47586273	      2.88723500	     -2.63404846	      2.05971662	    -12.66285710	     -0.67791846	    -12.18799490	      0.62283986	     -7.12145026
      1.49133333	     -0.00995470	      6.53802971	     -4.06176403	      0.57921058	      1.00651268	      0.35039637	     19.93934947	     -3.67588105	      1.21532038	     -2.95065876	      6.85645190	     -1.91110967	      3.43877896	    -16.22933459	     13.44209544	      2.76556817	     -3.03707827	      2.05506542	    -12.41425083	      4.23136377	    -12.18639767	      0.69982359	     -7.12156217
      1.49550000	     -0.07578363	      6.53148178	     -4.00100349	      0.58463562	      1.00589850	      0.35033721	     19.97071895	     -3.59751595	      1.19517215	     -2.50282805	      6.93695951	     -1.55467270	      3.46748475	    -16.29624666	     13.42541435	      2.83102391	     -3.42882252	      2.05361228	    -12.41022747	      4.25951781	    -12.11830912	      0.76604331	     -7.14748081
      1.49966667	     -0.12626318	      6.53047748	     -3.96732674	      0.59005707	      1.00530522	      0.35033546	     19.98177031	     -3.51738109	      1.33055834	     -2.12210827	      7.00934068	     -1.37378321	      3.47491848	    -16.36682673	     13.42103687	      2.88254954	     -3.83293164	      2.00667307	    -12.42345927	      4.26746364	    -12.09256989	      0.81967529	     -7.13398640
      1.50383333	     -0.15875313	      6.47147722	     -3.90750401	      0.59555861	      1.00478319	      0.35028018	     19.95750929	     -3.39546089	      1.38288703	     -1.81747344	      6.96834922	     -1.09465437	      3.49834892	    -16.43044804	     13.34975818	      2.88927924	     -4.31642355	      2.10020767	    -12.31626981	      4.32983786	    -12.04985568	      0.95857883	     -7.15072604
      1.50800000	     -0.21745120	      6.44305754	     -3.84137138	      0.60105934	      1.00421299	      0.35024866	     19.97566262	     -3.30469133	      1.51633258	     -1.62284641	      7.01839659	     -0.92866610	      3.55544309	    -16.41657229	     13.29919440	      2.78980041	     -4.89407547	      2.21623356	    -12.01153108	      4.51709427	    -11.97507096	      1.04618380	     -7.20666267
      1.51216667	     -0.23353583	      6.39129891	     -3.79603127	      0.60660268	      1.00371097	      0.35022449	     19.94236195	     -3.19320530	      1.71006162	     -1.50103005	      7.01828854	     -0.82211221	      3.56775644	    -16.47504355	     13.24173664	      2.82004147	     -5.41261553	      2.17822565	    -12.04312922	      4.55644550	    -11.96478919	      1.14564048	     -7.18726338
      1.51633333	     -0.28479343	      6.32376485	     -3.72624904	      0.61217063	      1.00318847	      0.35020593	     19.92485338	     -3.06924746	      1.97160152	     -1.42103100	      6.89540952	     -0.89841273	      3.63688912	    -16.43485291	     13.14714665	      2.70611264	     -6.06592289	      2.31093838	    -11.69379678	      4.85804141	    -11.90129373	      1.29821588	     -7.21385948
      1.52050000	     -0.28760200	      6.25402945	     -3.67267802	      0.61776489	      1.00272583	      0.35016450	     19.89049926	     -2.95082258	      2.19358323	     -1.49218855	      6.85746714	     -0.83210586	      3.65028144	    -16.47267047	     13.07053159	      2.73104266	     -6.65664930	      2.24169719	    -11.73751576	      4.91012269	    -11.91245022	      1.42541568	     -7.19335541
